{"asset":{"version":"2.0","generator":"THREE.GLTFExporter"},"scenes":[{"name":"default","nodes":[0,5]}],"scene":0,"nodes":[{"mesh":0,"skin":0},{"translation":[8.881784197001252e-16,0,4.5],"name":"Bone","extras":{"type":"Bone","properties":{"length":4,"thickness":1,"preSavedInverse":[2.220446049250313e-16,0,1,0,0,1,0,0,-1,0,2.220446049250313e-16,0,2,-2,-4.440892098500626e-16,1],"preSavedMatrix":[0.9108638242201552,5.4363747748318733e-17,-0.4127070386488018,0,-1.708873501085366e-17,1,9.400915141081999e-17,0,0.4127070386488018,-7.85768944665722e-17,0.9108638242201552,0,8.881784197001252e-16,0,4.500000000000001,1],"savedInverse":[2.220446049250313e-16,0,1,0,0,1,0,0,-1,0,2.220446049250313e-16,0,2,-2,-4.440892098500626e-16,1],"savedMatrix":[1,0,0,0,0,1,0,0,0,0,1,0,8.881784197001252e-16,0,4.500000000000001,1]},"animation":{"uuid":"738B1FDB-38E8-4E04-B100-B6AF7D3560B7","editAction":"","editKeyType":"position","actions":[{"type":"default","name":"Move----","uuid":"7F63D448-C7DF-4B5D-A3F9-928C07EB7EBC","properties":[{"type":"rotation","expanded":false,"tracks":[{"component":"x","keys":[{"time":0,"value":0,"interpolation":"linear"},{"time":4,"value":-1.0471975293678666,"interpolation":"linear"}]},{"component":"y","keys":[{"time":0,"value":0,"interpolation":"linear"},{"time":4,"value":5.858720901196461e-8,"interpolation":"linear"}]},{"component":"z","keys":[{"time":0,"value":0,"interpolation":"linear"},{"time":4,"value":-5.901693166172293e-8,"interpolation":"linear"}]}]}]},{"type":"default","name":"TurnLeft","uuid":"00F2D2CC-C3A4-46E5-A1D5-CDE41A9BFC6C","properties":[{"type":"rotation","expanded":false,"tracks":[{"component":"x","keys":[{"time":0,"value":0,"interpolation":"linear"},{"time":4,"value":5.324372105434143e-16,"interpolation":"linear"}]},{"component":"y","keys":[{"time":0,"value":0,"interpolation":"linear"},{"time":4,"value":1.3089969389957474,"interpolation":"linear"}]},{"component":"z","keys":[{"time":0,"value":0,"interpolation":"linear"},{"time":4,"value":-2.7570517094523565e-16,"interpolation":"linear"}]}]}]},{"type":"default","name":"TurnRigh","uuid":"7E3763C5-2881-4BBE-92FA-6F85A0AE056B","properties":[{"type":"rotation","expanded":false,"tracks":[{"component":"x","keys":[{"time":0,"value":0,"interpolation":"linear"},{"time":4,"value":1.0471974852627426,"interpolation":"linear"}]},{"component":"y","keys":[{"time":0,"value":0,"interpolation":"linear"},{"time":4,"value":0.00016027116471389283,"interpolation":"linear"}]},{"component":"z","keys":[{"time":0,"value":0,"interpolation":"linear"},{"time":4,"value":-0.000277447700329794,"interpolation":"linear"}]}]}]}]},"collapsed":false,"visible":true,"locked":false,"savedID":"454","savedParentID":448,"childIndex":0,"nestedLocked":false,"tempOldRotation":[0,0,0,"XYZ"],"tempOldScale":[1,1,1],"sceneGraphDepth":5,"stoppedState":{"position":{"x":8.881784197001252e-16,"y":0,"z":4.5},"quaternion":{"_x":0,"_y":0,"_z":0,"_w":1},"scale":{"x":1,"y":1,"z":1}},"pausedState":{"position":{"x":8.881784197001252e-16,"y":0,"z":4.500000000000001},"quaternion":{"_x":4.414137001786103e-17,"_y":0.21111155318911934,"_z":1.827500284935042e-17,"_w":0.9774619920471332},"scale":{"x":1,"y":1,"z":1}},"saveExportMatrix":[0.9108638242201552,5.436374843432436e-17,-0.4127070386488018,0,-1.7088734324848048e-17,1,9.400915153552027e-17,0,0.4127070386488018,-7.857689434187191e-17,0.9108638242201552,0,8.881784197001252e-16,0,4.500000000000001,1],"originalID":454}},{"translation":[8.881784197001252e-16,0,4.5],"name":"Bone","extras":{"type":"Bone","properties":{"length":4,"thickness":1,"savedMatrix":[1,0,0,0,0,1,0,0,0,0,1,0,2.220446049250313e-16,0,4.5,1],"preSavedInverse":[2.220446049250313e-16,0,1,0,0,1,0,0,-1,0,2.220446049250313e-16,0,2.000000000000001,-2,4.5,1],"preSavedMatrix":[0.9426414851310889,4.088930751934902e-17,-0.3338068785849865,0,-1.6903094015907322e-17,1,7.476104246296502e-17,0,0.3338068785849865,-6.48304911908584e-17,0.9426414851310889,0,2.220446049250313e-16,0,4.5,1],"savedInverse":[2.220446049250313e-16,0,1,0,0,1,0,0,-1,0,2.220446049250313e-16,0,2.000000000000001,-2,4.5,1]},"animation":{"uuid":"0B4CAA92-FA83-4616-972C-34690D4C3FD9","editAction":"","editKeyType":"position","actions":[{"type":"default","name":"Move----","uuid":"6316AB13-FD9A-4F66-B9EE-C3D4A560C287","properties":[{"type":"rotation","expanded":false,"tracks":[{"component":"x","keys":[{"time":0,"value":0,"interpolation":"linear"},{"time":4,"value":-1.04719757326125,"interpolation":"linear"}]},{"component":"y","keys":[{"time":0,"value":0,"interpolation":"linear"},{"time":4,"value":5.806668327278408e-8,"interpolation":"linear"}]},{"component":"z","keys":[{"time":0,"value":0,"interpolation":"linear"},{"time":4,"value":-2.942981834509355e-8,"interpolation":"linear"}]}]}]},{"type":"default","name":"TurnLeft","uuid":"8C25322E-5248-48F9-B3AF-4A64D2E0BC86","properties":[{"type":"rotation","expanded":false,"tracks":[{"component":"x","keys":[{"time":0,"value":0,"interpolation":"linear"},{"time":4,"value":2.755893196836757e-16,"interpolation":"linear"}]},{"component":"y","keys":[{"time":0,"value":0,"interpolation":"linear"},{"time":4,"value":1.0471975511965974,"interpolation":"linear"}]},{"component":"z","keys":[{"time":0,"value":0,"interpolation":"linear"},{"time":4,"value":-5.91541950057095e-17,"interpolation":"linear"}]}]}]},{"type":"default","name":"TurnRigh","uuid":"5D77DF05-CC18-4638-ADCD-C2C1A2EDBFDF","properties":[{"type":"rotation","expanded":false,"tracks":[{"component":"x","keys":[{"time":4,"value":0.5235987535919944,"interpolation":"linear"},{"time":0,"value":-2.3080954926839444e-8,"interpolation":"linear"}]},{"component":"y","keys":[{"time":4,"value":0.00011736543799224866,"interpolation":"linear"},{"time":0,"value":0.0001524178923349229,"interpolation":"linear"}]},{"component":"z","keys":[{"time":4,"value":-0.00043786428804525095,"interpolation":"linear"},{"time":0,"value":-0.0003070244985777764,"interpolation":"linear"}]}]}]}]},"collapsed":false,"visible":true,"locked":false,"savedID":"448","savedParentID":442,"childIndex":0,"nestedLocked":false,"tempOldRotation":[0,0,0,"XYZ"],"tempOldScale":[1,1,1],"sceneGraphDepth":4,"stoppedState":{"position":{"x":8.881784197001252e-16,"y":0,"z":4.5},"quaternion":{"_x":0,"_y":0,"_z":0,"_w":1},"scale":{"x":1,"y":1,"z":1}},"pausedState":{"position":{"x":2.220446049250313e-16,"y":0,"z":4.5},"quaternion":{"_x":3.54093335260369e-17,"_y":0.16934951264900502,"_z":1.465984625047128e-17,"_w":0.985556064979168},"scale":{"x":1,"y":1,"z":1}},"saveExportMatrix":[0.9426414851310889,4.088930770756883e-17,-0.3338068785849865,0,-1.6903093827687514e-17,1,7.476104250552056e-17,0,0.3338068785849865,-6.483049114830286e-17,0.9426414851310889,0,2.220446049250313e-16,0,4.5,1],"originalID":448},"children":[1]},{"rotation":[0,0.7071067811865475,0,0.7071067811865476],"translation":[-9,2,1.9999999999999998],"name":"Bone","extras":{"type":"Bone","properties":{"length":4,"thickness":1,"preSavedInverse":[2.220446049250313e-16,0,1,0,0,1,0,0,-1,0,2.220446049250313e-16,0,2.0000000000000018,-2,9,1],"preSavedMatrix":[-0.25217347801831885,7.465743287333609e-17,-0.9676820291793623,0,9.56792060378059e-18,1,7.46574328733361e-17,0,0.9676820291793623,9.567920603780588e-18,-0.25217347801831885,0,-9,2,1.9999999999999998,1],"savedInverse":[2.220446049250313e-16,0,1,0,0,1,0,0,-1,0,2.220446049250313e-16,0,2.0000000000000018,-2,9,1],"savedMatrix":[1.1102230246251564e-16,2.775557561562891e-17,-0.9999999999999999,0,-0.4999999999999998,0.8660254037844388,-2.7755575615628914e-17,0,0.8660254037844387,0.4999999999999997,1.1102230246251564e-16,0,-9,2,1.9999999999999998,1]},"animation":{"uuid":"1BBEA9B1-9C97-4AF3-B14C-A3EA929A248F","editAction":"","editKeyType":"position","actions":[{"type":"default","name":"Move----","uuid":"F264DCDE-19DB-43B1-80F7-EF9D1023EC23","properties":[{"type":"rotation","expanded":false,"tracks":[{"component":"x","keys":[{"time":0,"value":0,"interpolation":"linear"},{"time":4,"value":-1.5707963267948972,"interpolation":"linear"}]},{"component":"y","keys":[{"time":0,"value":1.5707963267948966,"interpolation":"linear"},{"time":4,"value":1.047197551196598,"interpolation":"linear"}]},{"component":"z","keys":[{"time":0,"value":0,"interpolation":"linear"},{"time":4,"value":1.5707963267948972,"interpolation":"linear"}]}]}]},{"type":"default","name":"TurnLeft","uuid":"E92916C1-E7B4-4AC1-A59F-54C6D33462A8","properties":[{"type":"rotation","expanded":false,"tracks":[{"component":"x","keys":[{"time":0,"value":0,"interpolation":"linear"},{"time":4,"value":-3.141592653589793,"interpolation":"linear"}]},{"component":"y","keys":[{"time":0,"value":1.5704758789410544,"interpolation":"linear"},{"time":4,"value":0.7857443025107166,"interpolation":"linear"}]},{"component":"z","keys":[{"time":0,"value":0,"interpolation":"linear"},{"time":4,"value":-3.141592653589793,"interpolation":"linear"}]}]}]},{"type":"default","name":"TurnRigh","uuid":"54451AA0-C877-485C-8B32-9A0B0AA972DC","properties":[{"type":"rotation","expanded":false,"tracks":[{"component":"x","keys":[{"time":0,"value":0,"interpolation":"linear"},{"time":4,"value":1.5703431451089818,"interpolation":"linear"}]},{"component":"y","keys":[{"time":0,"value":1.5705346837480791,"interpolation":"linear"},{"time":4,"value":0.7853981120540364,"interpolation":"linear"}]},{"component":"z","keys":[{"time":0,"value":0,"interpolation":"linear"},{"time":4,"value":-1.5704758789571611,"interpolation":"linear"}]}]}]}]},"collapsed":false,"visible":true,"locked":false,"savedID":"442","savedParentID":403,"childIndex":0,"nestedLocked":false,"tempOldRotation":[0,1.5704501876816281,0,"XYZ"],"tempOldScale":[0.9999999999999999,1,0.9999999999999999],"sceneGraphDepth":3,"stoppedState":{"position":{"x":-9,"y":2,"z":1.9999999999999998},"quaternion":{"_x":-0.18301270189221924,"_y":0.6830127018922193,"_z":0.18301270189221924,"_w":0.6830127018922194},"scale":{"x":0.9999999999999999,"y":1,"z":0.9999999999999999}},"pausedState":{"position":{"x":-9,"y":2,"z":1.9999999999999998},"quaternion":{"_x":2.661126981626446e-17,"_y":0.7912564306273658,"_z":2.661126981626446e-17,"_w":0.6114844642792435},"scale":{"x":0.9999999999999999,"y":1,"z":0.9999999999999999}},"saveExportMatrix":[-0.2521734780183184,7.465743181685414e-17,-0.9676820291793622,0,9.567919547298647e-18,1,7.465743300873231e-17,0,0.9676820291793622,9.567920739176811e-18,-0.2521734780183184,0,-9,2,1.9999999999999998,1],"originalID":442},"children":[2]},{"extras":{"type":"Bone","properties":{"length":1,"thickness":1,"preSavedInverse":[1,0,0,0,0,1,0,0,0,0,1,0,0,0,0,1],"preSavedMatrix":[1,0,0,0,0,1,0,0,0,0,1,0,0,0,0,1],"savedInverse":[1,0,0,0,0,1,0,0,0,0,1,0,0,0,0,1],"savedMatrix":[1,0,0,0,0,1,0,0,0,0,1,0,0,0,0,1]},"animation":{"uuid":"64803548-756B-457D-B2E5-C9DE1FC86BC8","editAction":"","editKeyType":"position","actions":[]},"isRoot":true,"collapsed":false,"visible":true,"locked":false,"nestedLocked":false,"savedID":403,"childIndex":0,"saveExportMatrix":[1,0,0,0,0,1,0,0,0,0,1,0,0,0,0,1],"originalID":403},"children":[3]},{"translation":[9,0,0],"name":"Object 426","extras":{"data":{"name":"Object 426","points":[{"name":"Origin","pos":{"x":0,"y":0,"z":0}}],"billboard":{"enabled":false,"y":false},"directional":{"enabled":false,"mode":"cameraAngle","angles":[{"suffix":"_S","angle":0,"enabled":true,"min":-22.5,"max":22.5},{"suffix":"_SW","angle":45,"enabled":true,"min":22.5,"max":67.5},{"suffix":"_W","angle":90,"enabled":true,"min":67.5,"max":112.5},{"suffix":"_NW","angle":135,"enabled":true,"min":112.5,"max":157.5},{"suffix":"_N","angle":180,"enabled":true,"min":157.5,"max":202.5},{"suffix":"_NE","angle":225,"enabled":true,"min":202.5,"max":247.5},{"suffix":"_E","angle":270,"enabled":true,"min":247.5,"max":292.5},{"suffix":"_SE","angle":315,"enabled":true,"min":292.5,"max":337.5}]},"custom":[],"instance":{"name":"Object 426","uuid":"EC0D553D-F0BC-4938-87E1-B664C24FCFE4","parent":null,"pos":{"x":9,"y":0,"z":0},"rot":{"x":0,"y":0,"z":0,"order":"XYZ"},"sca":{"x":1,"y":1,"z":1},"custom":[]}}},"children":[4]}],"bufferViews":[{"buffer":0,"byteOffset":0,"byteLength":1296,"target":34962,"byteStride":12},{"buffer":0,"byteOffset":1296,"byteLength":1296,"target":34962,"byteStride":12},{"buffer":0,"byteOffset":2592,"byteLength":864,"target":34962,"byteStride":8},{"buffer":0,"byteOffset":3456,"byteLength":1728,"target":34962,"byteStride":16},{"buffer":0,"byteOffset":5184,"byteLength":864,"target":34962,"byteStride":8},{"buffer":0,"byteOffset":6048,"byteLength":1728,"target":34962,"byteStride":16},{"buffer":0,"byteOffset":7776,"byteLength":216,"target":34963},{"buffer":0,"byteOffset":7992,"byteLength":256},{"buffer":0,"byteOffset":8248,"byteLength":328},{"buffer":0,"byteOffset":8576,"byteLength":1312},{"buffer":0,"byteOffset":9888,"byteLength":328},{"buffer":0,"byteOffset":10216,"byteLength":1312},{"buffer":0,"byteOffset":11528,"byteLength":328},{"buffer":0,"byteOffset":11856,"byteLength":1312},{"buffer":0,"byteOffset":13168,"byteLength":328},{"buffer":0,"byteOffset":13496,"byteLength":1312},{"buffer":0,"byteOffset":14808,"byteLength":328},{"buffer":0,"byteOffset":15136,"byteLength":1312},{"buffer":0,"byteOffset":16448,"byteLength":328},{"buffer":0,"byteOffset":16776,"byteLength":1312},{"buffer":0,"byteOffset":18088,"byteLength":328},{"buffer":0,"byteOffset":18416,"byteLength":1312},{"buffer":0,"byteOffset":19728,"byteLength":328},{"buffer":0,"byteOffset":20056,"byteLength":1312},{"buffer":0,"byteOffset":21368,"byteLength":328},{"buffer":0,"byteOffset":21696,"byteLength":1312}],"buffers":[{"byteLength":23008,"uri":"data:application/octet-stream;base64,"}],"accessors":[{"bufferView":0,"componentType":5126,"count":108,"max":[4,4,4],"min":[-9,0,0],"type":"VEC3"},{"bufferView":1,"componentType":5126,"count":108,"max":[1,1,1],"min":[-1,-1,-1],"type":"VEC3"},{"bufferView":2,"componentType":5126,"count":108,"max":[0.25,0.25],"min":[0,0],"type":"VEC2"},{"bufferView":3,"componentType":5126,"count":108,"max":[1,1,1,1],"min":[1,1,1,1],"type":"VEC4"},{"bufferView":4,"componentType":5123,"count":108,"max":[1,2,3,0],"min":[0,0,0,0],"type":"VEC4"},{"bufferView":5,"componentType":5126,"count":108,"max":[1,1,1,0],"min":[0,0,0,0],"type":"VEC4"},{"bufferView":6,"componentType":5123,"count":108,"max":[107],"min":[0],"type":"SCALAR"},{"bufferView":7,"componentType":5126,"count":4,"max":[1,0,1,0,0,1,0,0,0,0,1,0,2,0,9,1],"min":[2.220446049250313e-16,0,0,0,0,1,0,0,-1,0,2.220446049250313e-16,0,0,-2,-4.440892098500626e-16,1],"type":"MAT4"},{"bufferView":8,"componentType":5126,"count":82,"max":[4],"min":[0],"type":"SCALAR"},{"bufferView":9,"componentType":5126,"count":82,"max":[0,0.7071067690849304,0.1830127090215683,0.7071067690849304],"min":[-0.1830127090215683,0.6830127239227295,0,0.6830127239227295],"type":"VEC4"},{"bufferView":10,"componentType":5126,"count":82,"max":[4],"min":[0],"type":"SCALAR"},{"bufferView":11,"componentType":5126,"count":82,"max":[0,1.7786156547572318e-8,0,1],"min":[-0.5,0,-2.726015679854754e-8,0.8660253882408142],"type":"VEC4"},{"bufferView":12,"componentType":5126,"count":82,"max":[4],"min":[0],"type":"SCALAR"},{"bufferView":13,"componentType":5126,"count":82,"max":[0,1.0614773060524385e-8,0,1],"min":[-0.5,0,-4.0201882711699e-8,0.8660253882408142],"type":"VEC4"},{"bufferView":14,"componentType":5126,"count":82,"max":[4],"min":[0],"type":"SCALAR"},{"bufferView":15,"componentType":5126,"count":82,"max":[8.000964031923264e-17,0.9238132834434509,8.000964031923264e-17,0.7072200775146484],"min":[-8.000964031923264e-17,-0.9238132834434509,-8.000964031923264e-17,-0.3828433156013489],"type":"VEC4"},{"bufferView":16,"componentType":5126,"count":82,"max":[4],"min":[0],"type":"SCALAR"},{"bufferView":17,"componentType":5126,"count":82,"max":[1.0454512754164572e-16,0.5,4.328281119571086e-17,1],"min":[0,0,0,0.8660253882408142],"type":"VEC4"},{"bufferView":18,"componentType":5126,"count":82,"max":[4],"min":[0],"type":"SCALAR"},{"bufferView":19,"componentType":5126,"count":82,"max":[1.2728607620362707e-16,0.6087614297866821,5.2697810706291474e-17,1],"min":[0,0,0,0.7933533191680908],"type":"VEC4"},{"bufferView":20,"componentType":5126,"count":82,"max":[4],"min":[0],"type":"SCALAR"},{"bufferView":21,"componentType":5126,"count":82,"max":[0.27055469155311584,0.707014262676239,0,0.7071992754936218],"min":[0,0.6531767845153809,-0.27064141631126404,0.653386116027832],"type":"VEC4"},{"bufferView":22,"componentType":5126,"count":82,"max":[4],"min":[0],"type":"SCALAR"},{"bufferView":23,"componentType":5126,"count":82,"max":[0.25881901383399963,0.00011334695591358468,-0.0001535122428322211,1],"min":[-2.3239483226689117e-8,0.0000762089402996935,-0.00019628400332294405,0.9659258127212524],"type":"VEC4"},{"bufferView":24,"componentType":5126,"count":82,"max":[4],"min":[0],"type":"SCALAR"},{"bufferView":25,"componentType":5126,"count":82,"max":[0.4999999701976776,0.000138761373818852,0,1],"min":[0,0,-0.00008007058931980282,0.8660253882408142],"type":"VEC4"}],"materials":[{"pbrMetallicRoughness":{"metallicFactor":0,"roughnessFactor":1,"baseColorTexture":{"index":0}},"alphaMode":"MASK","alphaCutoff":0.01,"name":"texture_1"}],"textures":[{"sampler":0,"source":0,"name":"texture_1"}],"samplers":[{"magFilter":9728,"minFilter":9728,"wrapS":33071,"wrapT":33071}],"images":[{"mimeType":"image/png","uri":"data:image/png;base64,"}],"meshes":[{"primitives":[{"mode":4,"attributes":{"POSITION":0,"NORMAL":1,"TEXCOORD_0":2,"COLOR_0":3,"JOINTS_0":4,"WEIGHTS_0":5},"extras":{"indexNormals":[{"x":0,"y":-1,"z":0},{"x":0,"y":-1,"z":0},{"x":0,"y":-1,"z":0},{"x":0,"y":-1,"z":0},{"x":0,"y":-1,"z":0},{"x":0,"y":-1,"z":0},{"x":0,"y":1,"z":0},{"x":0,"y":1,"z":0},{"x":0,"y":1,"z":0},{"x":0,"y":1,"z":0},{"x":0,"y":1,"z":0},{"x":0,"y":1,"z":0},{"x":-1,"y":0,"z":0},{"x":-1,"y":0,"z":0},{"x":-1,"y":0,"z":0},{"x":-1,"y":0,"z":0},{"x":-1,"y":0,"z":0},{"x":-1,"y":0,"z":0},{"x":0,"y":0,"z":-1},{"x":0,"y":0,"z":-1},{"x":0,"y":0,"z":-1},{"x":0,"y":0,"z":-1},{"x":0,"y":0,"z":-1},{"x":0,"y":0,"z":-1},{"x":1,"y":0,"z":0},{"x":1,"y":0,"z":0},{"x":1,"y":0,"z":0},{"x":1,"y":0,"z":0},{"x":1,"y":0,"z":0},{"x":1,"y":0,"z":0},{"x":0,"y":0,"z":1},{"x":0,"y":0,"z":1},{"x":0,"y":0,"z":1},{"x":0,"y":0,"z":1},{"x":0,"y":0,"z":1},{"x":0,"y":0,"z":1},{"x":0,"y":-1,"z":0},{"x":0,"y":-1,"z":0},{"x":0,"y":-1,"z":0},{"x":0,"y":-1,"z":0},{"x":0,"y":-1,"z":0},{"x":0,"y":-1,"z":0},{"x":0,"y":1,"z":0},{"x":0,"y":1,"z":0},{"x":0,"y":1,"z":0},{"x":0,"y":1,"z":0},{"x":0,"y":1,"z":0},{"x":0,"y":1,"z":0},{"x":-1,"y":0,"z":0},{"x":-1,"y":0,"z":0},{"x":-1,"y":0,"z":0},{"x":-1,"y":0,"z":0},{"x":-1,"y":0,"z":0},{"x":-1,"y":0,"z":0},{"x":0,"y":0,"z":-1},{"x":0,"y":0,"z":-1},{"x":0,"y":0,"z":-1},{"x":0,"y":0,"z":-1},{"x":0,"y":0,"z":-1},{"x":0,"y":0,"z":-1},{"x":1,"y":0,"z":0},{"x":1,"y":0,"z":0},{"x":1,"y":0,"z":0},{"x":1,"y":0,"z":0},{"x":1,"y":0,"z":0},{"x":1,"y":0,"z":0},{"x":0,"y":0,"z":1},{"x":0,"y":0,"z":1},{"x":0,"y":0,"z":1},{"x":0,"y":0,"z":1},{"x":0,"y":0,"z":1},{"x":0,"y":0,"z":1},{"x":-1,"y":0,"z":0},{"x":-1,"y":0,"z":0},{"x":-1,"y":0,"z":0},{"x":-1,"y":0,"z":0},{"x":-1,"y":0,"z":0},{"x":-1,"y":0,"z":0},{"x":1,"y":0,"z":0},{"x":1,"y":0,"z":0},{"x":1,"y":0,"z":0},{"x":1,"y":0,"z":0},{"x":1,"y":0,"z":0},{"x":1,"y":0,"z":0},{"x":0,"y":1,"z":0},{"x":0,"y":1,"z":0},{"x":0,"y":1,"z":0},{"x":0,"y":1,"z":0},{"x":0,"y":1,"z":0},{"x":0,"y":1,"z":0},{"x":0,"y":-1,"z":0},{"x":0,"y":-1,"z":0},{"x":0,"y":-1,"z":0},{"x":0,"y":-1,"z":0},{"x":0,"y":-1,"z":0},{"x":0,"y":-1,"z":0},{"x":0,"y":0,"z":-1},{"x":0,"y":0,"z":-1},{"x":0,"y":0,"z":-1},{"x":0,"y":0,"z":-1},{"x":0,"y":0,"z":-1},{"x":0,"y":0,"z":-1},{"x":0,"y":0,"z":1},{"x":0,"y":0,"z":1},{"x":0,"y":0,"z":1},{"x":0,"y":0,"z":1},{"x":0,"y":0,"z":1},{"x":0,"y":0,"z":1}]},"indices":6,"material":0}]}],"skins":[{"inverseBindMatrices":7,"joints":[4,3,2,1],"skeleton":4}],"animations":[{"name":"Move----","samplers":[{"input":8,"output":9,"interpolation":"LINEAR"},{"input":10,"output":11,"interpolation":"LINEAR"},{"input":12,"output":13,"interpolation":"LINEAR"}],"channels":[{"sampler":0,"target":{"node":3,"path":"rotation"}},{"sampler":1,"target":{"node":2,"path":"rotation"}},{"sampler":2,"target":{"node":1,"path":"rotation"}}]},{"name":"TurnLeft","samplers":[{"input":14,"output":15,"interpolation":"LINEAR"},{"input":16,"output":17,"interpolation":"LINEAR"},{"input":18,"output":19,"interpolation":"LINEAR"}],"channels":[{"sampler":0,"target":{"node":3,"path":"rotation"}},{"sampler":1,"target":{"node":2,"path":"rotation"}},{"sampler":2,"target":{"node":1,"path":"rotation"}}]},{"name":"TurnRigh","samplers":[{"input":20,"output":21,"interpolation":"LINEAR"},{"input":22,"output":23,"interpolation":"LINEAR"},{"input":24,"output":25,"interpolation":"LINEAR"}],"channels":[{"sampler":0,"target":{"node":3,"path":"rotation"}},{"sampler":1,"target":{"node":2,"path":"rotation"}},{"sampler":2,"target":{"node":1,"path":"rotation"}}]}]}